PathFileType  4	(X/Y/Z) C:\Users\antoi\Documents\MyRepositories\mobilecap\ResultsAnalysis
DataRate	CameraRate	NumFrames	NumMarkers	Units	OrigDataRate	OrigDataStartFrame	OrigNumFrames
100.0	100.0	4	51	mm	100.0	18	141
Frame#	Time	r_knee			r_shank_antsup			r_ankle			r_calc			r_5meta			r_toe			L_knee			L_shank_antsup			L_ankle			L_calc			L_5meta			L_toe			r_sh2			r_sh3			r_sh4			L_sh2			L_sh3			r_thigh1			r_thigh2			r_thigh3			r_thigh4			r_thigh5			L_thigh1			L_thigh2			L_thigh3			L_thigh4			r.ASIS			r.PSIS			L.ASIS			L.PSIS			C7			R_Shoulder			L_Shoulder			R_Sternum			L_Sternum			R_humerus			R_elbow_med			R_elbow_lat			R_forearm			R_wrist_radius			R_wrist_ulna			L_humerus			L_elbow_med			L_elbow_lat			L_forearm			L_wrist_radius			L_wrist_ulna			R_HJC			L_HJC			R_HJC_reg			L_HJC_reg			
		X1	Y1	Z1	X2	Y2	Z2	X3	Y3	Z3	X4	Y4	Z4	X5	Y5	Z5	X6	Y6	Z6	X7	Y7	Z7	X8	Y8	Z8	X9	Y9	Z9	X10	Y10	Z10	X11	Y11	Z11	X12	Y12	Z12	X13	Y13	Z13	X14	Y14	Z14	X15	Y15	Z15	X16	Y16	Z16	X17	Y17	Z17	X18	Y18	Z18	X19	Y19	Z19	X20	Y20	Z20	X21	Y21	Z21	X22	Y22	Z22	X23	Y23	Z23	X24	Y24	Z24	X25	Y25	Z25	X26	Y26	Z26	X27	Y27	Z27	X28	Y28	Z28	X29	Y29	Z29	X30	Y30	Z30	X31	Y31	Z31	X32	Y32	Z32	X33	Y33	Z33	X34	Y34	Z34	X35	Y35	Z35	X36	Y36	Z36	X37	Y37	Z37	X38	Y38	Z38	X39	Y39	Z39	X40	Y40	Z40	X41	Y41	Z41	X42	Y42	Z42	X43	Y43	Z43	X44	Y44	Z44	X45	Y45	Z45	X46	Y46	Z46	X47	Y47	Z47	X48	Y48	Z48	X49	Y49	Z49	X50	Y50	Z50	X51	Y51	Z51	

18	0.17000000	80.07034	530.72483	-56.26819	117.98552	456.13455	-56.56101	121.37768	95.04752	-99.06107	60.81293	53.59850	-143.60274	269.31072	37.96079	-83.07225	298.33377	68.60754	-142.54278	-20.78279	510.84673	-354.14823	-77.76317	410.34602	-367.20166	-373.29927	255.82536	-309.49959	-436.11483	305.85719	-269.01688	-348.84050	84.82617	-256.48050	-388.79118	80.93753	-315.95096	138.67520	344.54717	-58.92953	49.42682	442.64319	-22.75683	58.10226	328.38479	-34.10780	-130.99465	486.29207	-367.75055	-226.68988	414.74884	-354.54354	95.50469	856.31379	-13.44408	124.31806	751.45467	-35.30028	80.81020	708.61103	-6.39307	-10.78561	819.75455	1.79374	23.70949	710.23862	-11.03069	37.65887	831.77614	-360.30715	59.44290	696.99581	-369.62338	-76.32477	811.42408	-346.24542	-49.26670	675.99348	-357.83124	75.57774	1045.85833	-56.32838	-128.52261	1074.56186	-122.25804	58.38885	1016.73691	-314.88983	-135.19889	1065.57472	-226.16497	-151.05159	1575.04249	-194.60021	-87.39036	1529.22926	-17.27357	-79.22034	1542.66697	-355.59520	3.96117	1509.78378	-160.83038	5.19939	1508.11813	-214.73513	-107.73223	1259.23336	73.78188	-152.33237	1168.84603	5.87942	-134.27571	1176.12040	87.31564	-75.55080	1027.84254	107.90701	-39.82462	916.32704	101.80651	-83.46880	920.23792	120.69168	-33.64395	1292.06175	-457.90409	-69.76258	1185.73012	-410.37134	-37.02516	1201.81125	-472.29918	87.69940	1077.43166	-470.46014	158.81541	1011.14061	-448.15161	133.32974	988.30826	-468.80110	-9.88111	965.85826	-48.80868	-24.16083	941.66841	-277.46083	0.26689	962.09174	-81.44134	-10.72549	947.28424	-252.55712	
19	0.18000000	85.19875	531.30327	-55.49888	122.18248	456.18078	-55.96468	121.16281	95.28502	-99.07464	61.10822	53.53329	-143.71194	269.43375	37.69907	-83.19079	298.44890	67.84445	-142.88895	7.30685	513.49555	-354.77378	-49.75528	413.83812	-367.22191	-348.91479	266.06813	-309.84390	-408.55147	317.98582	-267.77807	-329.98928	91.23875	-259.21777	-371.85621	90.56200	-317.47667	141.44629	344.37346	-58.30568	53.37099	443.49572	-22.78787	60.53321	329.13474	-34.42058	-101.57335	490.40974	-368.44669	-198.54416	420.77656	-354.87160	105.35426	856.66646	-11.88511	132.58792	751.39052	-33.79909	88.04288	709.01170	-5.28238	-1.78534	821.66272	2.65760	30.93941	711.55815	-10.49556	54.29148	834.78010	-359.68769	80.66336	700.77939	-369.66538	-58.92880	810.44237	-345.75335	-27.09284	676.08955	-358.03592	87.67542	1047.57744	-55.40319	-116.48573	1076.16799	-121.09104	69.54590	1018.45165	-313.93187	-123.40122	1066.56627	-224.84905	-138.40138	1576.88554	-193.61424	-74.03084	1531.19950	-16.48622	-66.74088	1544.43429	-354.72809	16.61285	1511.32973	-160.22152	17.70260	1509.64127	-214.05367	-92.04006	1261.30117	75.41225	-136.73802	1170.30332	8.16679	-117.92110	1177.93357	89.40064	-56.86889	1030.45871	109.35799	-19.68262	919.58309	102.82996	-63.02317	922.77351	122.23971	-24.05171	1292.80696	-456.10415	-61.64371	1187.46944	-407.66910	-28.84210	1202.60134	-469.83538	91.98912	1074.73079	-469.05764	161.13517	1006.10305	-447.34996	134.50838	984.22162	-467.77043	2.39221	967.52041	-47.70392	-12.46814	943.10357	-276.29400	12.10858	964.51543	-79.92529	0.71036	948.68294	-250.94538	
20	0.19000000	89.72027	531.82628	-54.65523	125.88579	456.21831	-55.19348	120.93142	95.46664	-99.06120	61.27333	53.48454	-143.77302	269.50515	37.50080	-83.26401	298.49177	67.30312	-143.11433	34.96320	516.90265	-355.20567	-22.60391	417.65825	-366.54942	-324.04382	275.49051	-309.72334	-381.51208	327.77232	-265.70040	-307.31830	97.77275	-262.68816	-350.84802	99.85773	-319.77725	143.71112	344.21938	-57.42546	56.78420	444.32123	-22.73859	62.49723	329.88218	-34.62061	-72.57139	494.80486	-368.75343	-170.55652	426.69177	-355.05734	114.58989	856.88732	-10.23292	140.35082	751.17870	-32.16898	94.67175	709.30693	-4.03554	6.64974	823.54463	3.31226	37.59057	712.81027	-10.05584	71.22590	838.27338	-358.79417	102.04722	705.15941	-369.21081	-41.24300	810.10635	-345.64081	-4.75260	676.96342	-358.37306	99.65780	1049.03081	-54.65512	-104.54039	1077.79842	-119.88361	80.63038	1020.31593	-313.22246	-111.71445	1067.70515	-223.48733	-125.82182	1578.74061	-192.68911	-60.67724	1533.13044	-15.75283	-54.29977	1546.07493	-353.96755	29.15491	1512.82744	-159.71421	30.07954	1511.09883	-213.47223	-76.41320	1263.40044	77.10690	-121.20111	1171.73357	10.56061	-101.53555	1179.75983	91.53597	-38.05820	1033.13606	110.75587	0.79876	922.94996	103.76105	-42.37910	925.39404	123.67763	-14.54753	1293.44825	-454.38355	-53.58600	1189.10571	-405.05505	-20.73360	1203.31320	-467.44196	96.04350	1072.03762	-467.69629	163.10977	1001.13494	-446.50530	135.26275	980.26086	-466.70924	14.55514	968.96925	-46.83103	-0.98778	944.70629	-275.39094	23.78640	966.83020	-78.68518	11.94848	950.17180	-249.63559	
21	0.20000000	93.79460	532.33037	-53.72203	129.19861	456.27191	-54.23994	120.72842	95.57862	-99.00620	61.33580	53.44776	-143.78289	269.52672	37.33343	-83.27827	298.48208	66.97592	-143.19178	62.08848	520.98081	-355.43783	3.59972	421.85687	-365.32587	-298.69468	283.84758	-309.08926	-355.27053	335.05401	-262.99840	-280.69253	104.30697	-266.73209	-325.61361	108.45554	-322.83570	145.55885	344.10306	-56.28638	59.78299	445.16019	-22.54527	64.09469	330.66061	-34.64422	-44.25389	499.51226	-368.63483	-142.96440	432.46230	-354.98172	123.32603	857.08887	-8.49922	147.78664	750.95166	-30.51776	100.96369	709.63208	-2.73447	14.74103	825.43993	3.84062	43.96247	714.09056	-9.64949	88.45553	842.24336	-357.65701	123.55587	710.09717	-368.32275	-23.26857	810.43774	-345.89327	17.69041	678.62833	-358.86886	111.48568	1050.31343	-53.99495	-92.70388	1079.47899	-118.70770	91.78890	1022.33447	-312.66150	-100.07594	1069.00773	-222.18052	-113.32344	1580.59575	-191.81908	-47.35911	1535.00824	-15.06850	-41.93565	1547.58752	-353.31681	41.57532	1514.29336	-159.28843	42.32564	1512.51065	-212.97925	-60.78411	1265.49618	78.81269	-105.70937	1173.12159	13.04708	-85.08452	1181.57273	93.70679	-19.13024	1035.85768	112.08494	21.55370	926.40045	104.57853	-21.57034	928.08588	124.99122	-5.11667	1293.97919	-452.72931	-45.58439	1190.62496	-402.54184	-12.68303	1203.94094	-465.12446	99.89897	1069.36673	-466.37612	164.76193	996.25857	-445.63389	135.68909	976.42855	-465.63113	26.55949	970.28554	-46.14026	10.41307	946.48149	-274.70718	35.29626	969.07125	-77.67703	23.11997	951.77424	-248.58564	
